# xmcd
#
# Track frame offsets:
#	150
#	17772
#	31231
#	46751
#	61588
#	75424
#	89778
#	105862
#	126076
#	142537
#	155712
#	171833
#
# Disc length: 2565 seconds
#
# Revision: 1
# Processed by: cddbd v1.5.2PL0 Copyright (c) Steve Scherf et al.
# Submitted via: EasyCDDAExtractor 16.0.6.1
#
DISCID=840a030c
DTITLE=De Vets - De tattoos van de blues
DYEAR=2003
DGENRE=Blues
TTITLE0=Dat komt voor mekaar
TTITLE1=Kijk es hoe'k ween
TTITLE2=Verdorie nog aan toe
TTITLE3=Tattoos van de blues
TTITLE4=Goed raak!
TTITLE5='t Stelt allemaal niks voor
TTITLE6=Liefde maakt blind
TTITLE7=Je staat me bij
TTITLE8=De droomfabriek
TTITLE9=Pak de pen
TTITLE10=Terug naar je wereld
TTITLE11=Vanmorgen werd ik wakker
EXTD=
EXTT0=
EXTT1=
EXTT2=
EXTT3=
EXTT4=
EXTT5=
EXTT6=
EXTT7=
EXTT8=
EXTT9=
EXTT10=
EXTT11=
PLAYORDER=
